<?xml version="1.0" encoding="utf-8"?><!DOCTYPE svg PUBLIC "-//W3C//DTD SVG 1.1//EN" "http://www.w3.org/Graphics/SVG/1.1/DTD/svg11.dtd"><svg version="1.1" xmlns="http://www.w3.org/2000/svg" width="590" height="590" viewBox="0 0 590 590"><g transform="scale(2.305,2.305)"><g><rect fill="#ffffff" width="256" height="256" /></g><rect fill="#CC0000" x="0" y="0" rx="16" ry="16" width="256" height="256" /><rect fill="#ffffff" x="9" y="9" rx="12" ry="12" width="238" height="238" /></g><g transform="translate(39,39) scale(0.25,0.25)"><g transform="translate(0,0)"><g transform="scale(1,-1) translate(0,-820)"><path stroke="none" fill="#CC0000" d="M36 702Q36 743 55 762Q73 781 114 781H235Q290 781 290 740Q290 700 235 700H156Q132 700 121 688Q110 676 110 652V618H227Q268 618 286 600Q305 581 305 539V407Q305 366 286 347Q267 328 227 328H110V242H227Q268 242 286 224Q305 205 305 164V39Q305 -1 286 -20Q267 -38 227 -38H110V-99Q110 -154 73 -154Q36 -154 36 -99V702V702ZM615 736Q643 765 670 765Q696 765 725 736L743 720H878Q919 720 937 701Q956 682 956 640V-97Q956 -152 920 -152Q884 -152 884 -97V594Q884 618 872 629Q860 640 836 640H719L699 660Q685 674 674 674Q662 674 649 660L629 640H504Q480 640 469 629Q458 618 458 594V-99Q458 -154 422 -154Q385 -154 385 -99V640Q385 682 404 701Q422 720 464 720H598L615 736V736ZM605 537V264H691Q715 264 727 276Q739 288 739 312V537Q739 595 779 595Q820 595 820 537V270Q820 229 801 211Q782 192 741 192H605V-12Q605 -37 616 -48Q627 -61 651 -61H775Q833 -61 833 -104Q833 -147 775 -147H609Q567 -147 548 -128Q530 -110 530 -69V537Q530 595 567 595Q605 595 605 537V537V537ZM110 545V401H184Q208 401 219 411Q231 421 231 443V503Q231 525 219 535Q208 545 184 545H110V545ZM110 168V33H184Q208 33 219 42Q231 51 231 73V129Q231 150 219 159Q209 168 184 168H110V168V169V168Z" /></g></g><g transform="translate(1024,0)"><g transform="scale(1,-1) translate(0,-820)"><path stroke="none" fill="#CC0000" d="M36 702Q36 743 55 762Q73 781 114 781H299Q355 781 355 740Q355 700 299 700H156Q132 700 121 688Q110 676 110 652V618H279Q320 618 338 600Q357 581 357 539V407Q357 366 338 347Q320 328 279 328H110V242H279Q320 242 338 224Q357 205 357 164V39Q357 -1 338 -20Q320 -38 279 -38H110V-99Q110 -153 73 -153Q36 -153 36 -99V702V702ZM474 781H910Q943 781 943 740Q943 700 910 700H908V139Q908 99 889 80Q870 61 830 61H554Q530 61 519 53Q508 44 508 25V-28Q508 -48 519 -57Q530 -67 554 -67H886Q942 -67 942 -107Q942 -147 886 -147H508Q466 -147 448 -128Q430 -110 430 -69V61Q430 103 448 121Q466 139 508 139H779Q803 139 815 152Q826 163 826 188V698H474Q417 698 417 739Q417 781 474 781V781V781ZM508 590V511H695V590Q695 647 733 647Q771 647 771 590V282Q771 241 752 223Q734 204 693 204H508Q466 204 448 223Q430 241 430 282V590Q430 647 469 647Q508 647 508 590V590V590ZM110 545V401H237Q260 401 272 411Q283 421 283 443V503Q283 525 272 535Q261 545 237 545H110V545ZM508 431V326Q508 301 519 290Q530 278 554 278H649Q673 278 685 290Q697 302 697 326V431H508V431ZM110 168V33H237Q261 33 272 42Q283 52 283 73V129Q283 150 272 159Q261 168 237 168H110V168V169V168Z" /></g></g><g transform="translate(0,1024)"><g transform="scale(1,-1) translate(0,-820)"><path stroke="none" fill="#CC0000" d="M102 781H227Q267 781 286 762Q305 743 305 702V-95Q305 -150 269 -150Q233 -150 233 -95V531H156Q132 531 121 520Q110 509 110 485V-95Q110 -150 73 -150Q36 -150 36 -95V525Q36 567 55 586Q73 604 114 604H233V652Q233 676 221 687Q209 698 184 698H102Q46 698 46 739Q46 781 102 781V781V781ZM452 773H528Q569 773 588 754Q607 735 607 694V604H733V694Q733 735 751 754Q770 773 812 773H886Q942 773 942 736Q942 700 886 700H846Q825 700 814 688Q804 676 804 652V604H878Q919 604 937 586Q956 567 956 525V435Q956 394 937 375Q919 357 878 357H804V264H878Q919 264 937 246Q956 228 956 186V-97Q956 -152 920 -152Q884 -152 884 -97V146Q884 170 873 181Q862 192 838 192H804V-99Q804 -154 768 -154Q733 -154 733 -99V192H607V-69Q607 -109 588 -128Q569 -147 528 -147H452Q394 -147 394 -111Q394 -75 452 -75H494Q515 -75 526 -63Q536 -50 536 -26V192H464Q422 192 404 211Q385 229 385 270V361Q385 403 404 421Q422 439 464 439H536V531H452Q394 531 394 568Q394 604 452 604H536V652Q536 676 526 687Q515 698 494 698H452Q394 698 394 735Q394 773 452 773V773V773ZM607 531V439H733V531H607V531ZM804 531V439H838Q862 439 873 445Q884 452 884 467V505Q884 519 873 525Q862 531 838 531H804V531ZM458 330V292Q458 276 468 270Q478 264 502 264H536V357H502Q477 357 468 351Q458 345 458 330V330V330ZM607 357V264H733V357H607V357V358V357Z" /></g></g><g transform="translate(1024,1024)"><g transform="scale(1,-1) translate(0,-820)"><path stroke="none" fill="#CC0000" d="M76 773H227Q267 773 286 754Q305 735 305 694V594Q305 553 286 534Q267 515 227 515H156Q132 515 121 509Q110 502 110 485V441Q110 424 121 417Q132 409 156 409H227Q268 409 286 391Q305 372 305 330V-69Q305 -109 286 -128Q267 -147 227 -147H114Q73 -147 55 -128Q36 -109 36 -69V220Q36 277 73 277Q110 277 110 220V-26Q110 -51 118 -63Q126 -75 144 -75H196Q215 -75 224 -63Q233 -50 233 -26V288Q233 312 221 323Q209 334 184 334H114Q73 334 55 353Q36 372 36 413V517Q36 559 55 578Q73 596 114 596H184Q209 596 221 603Q233 611 233 626V670Q233 685 221 692Q209 698 184 698H76Q20 698 20 735Q20 773 76 773V773V773ZM389 781H914Q970 781 970 740Q970 700 914 700H820V672Q820 651 830 641Q840 632 864 632H914Q970 632 970 596Q970 560 914 560H826Q784 560 765 578Q747 597 747 638V698H689V531H878Q919 531 937 513Q956 495 956 453V-95Q956 -150 920 -150Q884 -150 884 -95V-65L822 -12Q804 2 786 2Q769 2 751 -12L689 -65V-91Q689 -146 653 -146Q617 -146 617 -91V-65L560 -20Q541 -5 524 -6Q506 -6 490 -22L428 -79V-119Q428 -155 392 -155Q357 -155 357 -119V453Q357 495 375 513Q393 531 436 531H617V698H566V638Q566 597 547 578Q529 560 488 560H387Q330 560 330 596Q330 632 387 632H446Q470 632 482 641Q494 651 494 672V698H389Q332 698 332 739Q332 781 389 781V781V781ZM436 461L526 367L615 461H436V461ZM699 461L787 375L878 461H699V461ZM619 371L572 316L619 266V371V371ZM428 361V264L474 312L428 361V361ZM687 371V266L731 318L687 371V371ZM884 379L826 320L884 264V379V379ZM528 258L446 178L520 107L600 186L528 258V258ZM781 264L711 188L777 115L852 190L781 264V264ZM617 109L572 63L617 23V109V109ZM428 101L430 15L472 57L428 101V101ZM687 101V25L727 63L687 101V101ZM884 129L826 73L884 21V129V129V130V129Z" /></g></g></g></svg>